<svg width="82" height="103" viewBox="0 0 82 103" fill="none" xmlns="http://www.w3.org/2000/svg">
<circle cx="38.8201" cy="45.1578" r="37.5264" fill="url(#paint0_linear_261_1258)"/>
<rect x="24.2273" y="34.7339" width="4.1696" height="9.38161" rx="2.0848" fill="white"/>
<rect x="49.2439" y="34.7339" width="4.1696" height="9.38161" rx="2.0848" fill="white"/>
<path fill-rule="evenodd" clip-rule="evenodd" d="M27.0458 51.7798C27.6035 57.9677 32.804 62.8168 39.1372 62.8168C45.4703 62.8168 50.6708 57.9677 51.2286 51.7798H27.0458Z" fill="white"/>
<ellipse cx="38.8204" cy="98.32" rx="20.848" ry="4.1696" fill="#EDF1F8"/>
<path fill-rule="evenodd" clip-rule="evenodd" d="M62.1421 0.509766C63.2935 0.509766 64.2269 1.44316 64.2269 2.59457V7.80657C64.2269 8.95798 63.2935 9.89137 62.1421 9.89137C60.9906 9.89137 60.0573 8.95798 60.0573 7.80657L60.0573 2.59457C60.0573 1.44316 60.9906 0.509766 62.1421 0.509766ZM74.2833 4.95763C75.0974 5.77179 75.0974 7.09181 74.2833 7.90598L70.5978 11.5914C69.7837 12.4056 68.4636 12.4056 67.6495 11.5914C66.8353 10.7773 66.8353 9.45724 67.6495 8.64307L71.3349 4.95763C72.1491 4.14346 73.4691 4.14346 74.2833 4.95763ZM80.2204 14.9825C80.5184 16.0947 79.8584 17.2379 78.7462 17.5359L73.7118 18.8848C72.5997 19.1828 71.4565 18.5228 71.1585 17.4107C70.8605 16.2985 71.5205 15.1553 72.6327 14.8573L77.6671 13.5083C78.7792 13.2103 79.9224 13.8703 80.2204 14.9825Z" fill="#10BE91"/>
<defs>
<linearGradient id="paint0_linear_261_1258" x1="59.9824" y1="72.251" x2="14.8449" y2="13.8858" gradientUnits="userSpaceOnUse">
<stop stop-color="#0FBDA0"/>
<stop offset="1" stop-color="#0FBD89"/>
</linearGradient>
</defs>
</svg>
